<?xml version="1.0" encoding="UTF-8" standalone="no"?>
<svg width="1383px" height="730px" viewBox="0 0 1383 730" version="1.1" xmlns="http://www.w3.org/2000/svg" xmlns:xlink="http://www.w3.org/1999/xlink">
    <!-- Generator: Sketch 3.8.3 (29802) - http://www.bohemiancoding.com/sketch -->
    <title>GR</title>
    <desc>Created with Sketch.</desc>
    <defs></defs>
    <g id="Design" stroke="none" stroke-width="1" fill="none" fill-rule="evenodd" opacity="0.2">
        <path d="M682.867188,417.195312 L682.867188,324.421875 L376.226562,324.421875 L376.226562,462.117188 L483.648438,462.117188 L482.671875,471.882812 C476.8125,528.523438 428.960937,566.121094 361.578125,566.121094 C270.757812,566.121094 211.675781,489.460938 211.675781,361.042969 C211.675781,235.554688 263.433594,163.289062 351.324219,163.289062 C410.894531,163.289062 457.28125,196.980469 470.953125,248.738281 L674.566406,248.738281 C658.941406,104.207031 527.105469,0.203125 350.347656,0.203125 C133.0625,0.203125 0.73828125,133.015625 0.73828125,363.972656 C0.73828125,597.859375 133.0625,729.207031 356.695312,729.207031 C561.285156,729.207031 682.867188,610.066406 682.867188,417.195312 L682.867188,417.195312 Z M971.929688,165.242188 L1057.86719,165.242188 C1113.53125,165.242188 1151.12891,202.839844 1151.12891,255.085938 C1151.12891,308.308594 1115.48438,343.953125 1057.37891,343.953125 L971.929688,343.953125 L971.929688,165.242188 Z M971.929688,480.671875 L1039.80078,480.671875 L1151.12891,717 L1382.57422,717 L1248.78516,449.910156 C1322.51562,414.753906 1362.55469,334.675781 1362.55469,251.667969 C1362.55469,100.789062 1265.875,12.4101562 1077.88672,12.4101562 L764.898438,12.4101562 L764.898438,717 L971.929688,717 L971.929688,480.671875 Z" id="GR" fill="#4F6B8C"></path>
    </g>
</svg>