<?xml version="1.0" encoding="UTF-8" standalone="no"?>
<svg width="1154px" height="730px" viewBox="0 0 1154 730" version="1.1" xmlns="http://www.w3.org/2000/svg" xmlns:xlink="http://www.w3.org/1999/xlink">
    <!-- Generator: Sketch 3.8.3 (29802) - http://www.bohemiancoding.com/sketch -->
    <title>LS</title>
    <desc>Created with Sketch.</desc>
    <defs></defs>
    <g id="Design" stroke="none" stroke-width="1" fill="none" fill-rule="evenodd" opacity="0.1">
        <path d="M484.226563,552.449219 L207.859375,552.449219 L207.859375,12.4101562 L0.828125,12.4101562 L0.828125,717 L484.226563,717 L484.226563,552.449219 Z M542.820312,509.480469 C543.308594,650.105469 656.101562,729.207031 845.066406,729.207031 C1032.56641,729.207031 1153.17188,637.410156 1153.17188,493.367188 C1153.17188,379.109375 1089.20703,314.167969 952.488281,290.242188 L855.808594,273.640625 C788.914062,261.921875 760.105469,244.34375 760.105469,210.652344 C760.105469,175.496094 794.285156,153.035156 848.484375,153.035156 C904.148438,153.035156 947.605469,178.914062 949.070312,222.859375 L1138.03516,222.859375 C1137.05859,86.140625 1032.07812,0.203125 844.578125,0.203125 C676.609375,0.203125 554.539062,90.046875 554.539062,232.625 C554.539062,342.976562 624.851562,417.195312 754.246094,439.65625 L847.507812,456.257812 C923.191406,469.929688 949.070312,484.089844 949.070312,516.804688 C949.070312,550.984375 910.984375,575.886719 848.972656,575.886719 C793.308594,575.886719 744.480469,549.519531 738.621094,509.480469 L542.820312,509.480469 Z" id="LS" fill="#FFFFFF"></path>
    </g>
</svg>