<?xml version="1.0" encoding="UTF-8" standalone="no"?>
<svg width="1445px" height="730px" viewBox="0 0 1445 730" version="1.1" xmlns="http://www.w3.org/2000/svg" xmlns:xlink="http://www.w3.org/1999/xlink">
    <!-- Generator: Sketch 3.8.3 (29802) - http://www.bohemiancoding.com/sketch -->
    <title>AC</title>
    <desc>Created with Sketch.</desc>
    <defs></defs>
    <g id="Design" stroke="none" stroke-width="1" fill="none" fill-rule="evenodd" opacity="0.2">
        <path d="M499.671875,717 L720.375,717 L490.394531,12.4101562 L230.628906,12.4101562 L0.6484375,717 L211.585938,717 L248.207031,576.863281 L463.050781,576.863281 L499.671875,717 Z M353.675781,175.007812 L357.582031,175.007812 L425.453125,430.867188 L285.804688,430.867188 L353.675781,175.007812 Z M1116.37109,729.207031 C1306.3125,729.207031 1443.51953,608.601562 1444.49609,432.820312 L1246.25391,432.820312 C1239.90625,514.363281 1188.14844,566.609375 1116.85938,566.609375 C1030.92188,566.609375 977.699219,491.414062 977.699219,363.972656 C977.699219,237.996094 1031.41016,162.800781 1116.37109,162.800781 C1188.14844,162.800781 1240.39453,216.023438 1245.27734,296.101562 L1443.51953,296.101562 C1443.03125,121.296875 1302.40625,0.203125 1116.37109,0.203125 C901.039062,0.203125 766.761719,132.039062 766.761719,364.460938 C766.761719,596.882812 900.550781,729.207031 1116.37109,729.207031 L1116.37109,729.207031 Z" id="AC" fill="#C5EBF1"></path>
    </g>
</svg>