<?xml version="1.0" encoding="UTF-8" standalone="no"?>
<svg width="93px" height="57px" viewBox="0 0 93 57" version="1.1" xmlns="http://www.w3.org/2000/svg" xmlns:xlink="http://www.w3.org/1999/xlink">
    <!-- Generator: Sketch 3.8.3 (29802) - http://www.bohemiancoding.com/sketch -->
    <title>Page 1</title>
    <desc>Created with Sketch.</desc>
    <defs>
        <polygon id="path-1" points="0 57 93 57 93 0 0 0"></polygon>
    </defs>
    <g id="Design" stroke="none" stroke-width="1" fill="none" fill-rule="evenodd">
        <g id="design" transform="translate(-982.000000, -2410.000000)">
            <g id="Page-1" transform="translate(982.000000, 2410.000000)">
                <path d="M84.5,56.5 L8.5,56.5 C4.082,56.5 0.5,52.918 0.5,48.5 L0.5,8.5 C0.5,4.082 4.082,0.5 8.5,0.5 L84.5,0.5 C88.918,0.5 92.5,4.082 92.5,8.5 L92.5,48.5 C92.5,52.918 88.918,56.5 84.5,56.5 L84.5,56.5 Z" id="Stroke-1" stroke="#2618FF" stroke-linecap="round"></path>
                <mask id="mask-2" fill="white">
                    <use xlink:href="#path-1"></use>
                </mask>
                <g id="Clip-4"></g>
                <polygon id="Stroke-3" stroke="#2618FF" stroke-linecap="round" mask="url(#mask-2)" points="0.5 26.5 92.5 26.5 92.5 13.5 0.5 13.5"></polygon>
                <path d="M11.5,42 L38.5,42" id="Stroke-5" stroke="#2618FF" stroke-linecap="round" mask="url(#mask-2)"></path>
                <path d="M1.5,26.5 L15,13" id="Stroke-6" stroke="#2618FF" stroke-linecap="round" mask="url(#mask-2)"></path>
                <path d="M11.5,26.5 L25,13" id="Stroke-7" stroke="#2618FF" stroke-linecap="round" mask="url(#mask-2)"></path>
                <path d="M21.5,26.5 L35,13" id="Stroke-8" stroke="#2618FF" stroke-linecap="round" mask="url(#mask-2)"></path>
                <path d="M31.5,26.5 L45,13" id="Stroke-9" stroke="#2618FF" stroke-linecap="round" mask="url(#mask-2)"></path>
                <path d="M41.5,26.5 L55,13" id="Stroke-10" stroke="#2618FF" stroke-linecap="round" mask="url(#mask-2)"></path>
                <path d="M51.5,26.5 L65,13" id="Stroke-11" stroke="#2618FF" stroke-linecap="round" mask="url(#mask-2)"></path>
                <path d="M61.5,26.5 L75,13" id="Stroke-12" stroke="#2618FF" stroke-linecap="round" mask="url(#mask-2)"></path>
                <path d="M71.5,26.5 L85,13" id="Stroke-13" stroke="#2618FF" stroke-linecap="round" mask="url(#mask-2)"></path>
                <path d="M81.5,26.5 L92.5,15.5" id="Stroke-14" stroke="#2618FF" stroke-linecap="round" mask="url(#mask-2)"></path>
            </g>
        </g>
    </g>
</svg>