<?xml version="1.0" encoding="UTF-8" standalone="no"?>
<svg width="59px" height="66px" viewBox="0 0 59 66" version="1.1" xmlns="http://www.w3.org/2000/svg" xmlns:xlink="http://www.w3.org/1999/xlink">
    <!-- Generator: Sketch 3.8.2 (29753) - http://www.bohemiancoding.com/sketch -->
    <title>noun_129168_cc</title>
    <desc>Created with Sketch.</desc>
    <defs></defs>
    <g id="Design" stroke="none" stroke-width="1" fill="none" fill-rule="evenodd">
        <g id="design" transform="translate(-428.000000, -2723.000000)" stroke="#2618FF">
            <g id="noun_129168_cc" transform="translate(429.000000, 2724.000000)">
                <path d="M35.5555556,64 L3.55555556,64 C1.59525926,64 0,62.4047407 0,60.4444444 L0,3.55555556 C0,1.59525926 1.59525926,0 3.55555556,0 L35.5555556,0 C37.5158519,0 39.1111111,1.59525926 39.1111111,3.55555556 L39.1111111,60.4444444 C39.1111111,62.4047407 37.5158519,64 35.5555556,64 L35.5555556,64 Z" id="Shape"></path>
                <polygon id="Shape" points="34.3703704 35.5555556 4.74074074 35.5555556 4.74074074 4.74074074 34.3703704 4.74074074"></polygon>
                <polygon id="Shape" points="56.9072593 56.8888889 42.7407407 56.8888889 42.7407407 5.92592593 56.9072593 5.92592593"></polygon>
                <rect id="Rectangle-path" x="47.4814815" y="8.2962963" width="2.37037037" height="46.2222222"></rect>
                <polygon id="Shape" points="13.037037 46.2222222 4.74074074 46.2222222 4.74074074 37.9259259 13.037037 37.9259259"></polygon>
                <polygon id="Shape" points="23.7037037 46.2222222 15.4074074 46.2222222 15.4074074 37.9259259 23.7037037 37.9259259"></polygon>
                <polygon id="Shape" points="26.0740741 46.2222222 26.0740741 37.9259259 34.3703704 37.9259259 34.3703704 46.2222222"></polygon>
                <polygon id="Shape" points="13.037037 56.8888889 4.74074074 56.8888889 4.74074074 48.5925926 13.037037 48.5925926"></polygon>
                <polygon id="Shape" points="23.7037037 56.8888889 15.4074074 56.8888889 15.4074074 48.5925926 23.7037037 48.5925926"></polygon>
                <polygon id="Shape" points="34.3703704 56.8888889 26.0740741 56.8888889 26.0740741 48.5925926 34.3703704 48.5925926"></polygon>
            </g>
        </g>
    </g>
</svg>