<?xml version="1.0" encoding="UTF-8" standalone="no"?>
<svg width="68px" height="56px" viewBox="0 0 68 56" version="1.1" xmlns="http://www.w3.org/2000/svg" xmlns:xlink="http://www.w3.org/1999/xlink">
    <!-- Generator: Sketch 3.8.2 (29753) - http://www.bohemiancoding.com/sketch -->
    <title>noun_103184_cc</title>
    <desc>Created with Sketch.</desc>
    <defs></defs>
    <g id="Design" stroke="none" stroke-width="1" fill="none" fill-rule="evenodd">
        <g id="design" transform="translate(-151.000000, -2409.000000)" stroke="#2618FF">
            <g id="noun_103184_cc" transform="translate(152.000000, 2410.000000)">
                <path d="M2,0 C0.9,0 0,0.9 0,2 L0,46 C0,47.1 0.9,48 2,48 L64,48 C65.1,48 66,47.1 66,46 L66,2 C66,0.9 65.1,0 64,0 L2,0 L2,0 Z" id="Shape"></path>
                <path d="M7,44 C5.3,44 4,42.7 4,41 L4,7 C4,5.3 5.3,4 7,4 L59,4 C60.7,4 62,5.3 62,7 L62,13 L62,36 L62,41 C62,42.7 60.7,44 59,44 L7,44 Z" id="Shape"></path>
                <path d="M24,35 C17.9,35 13,30.1 13,24 C13,17.9 17.9,13 24,13 C30.1,13 35,17.9 35,24 C35,30.1 30.1,35 24,35 L24,35 Z" id="Shape"></path>
                <path d="M24,29 C21.2,29 19,26.8 19,24 C19,21.2 21.2,19 24,19 C26.8,19 29,21.2 29,24 C29,26.8 26.8,29 24,29 L24,29 Z" id="Shape"></path>
                <rect id="Rectangle-path" x="14" y="23" width="3" height="2"></rect>
                <rect id="Rectangle-path" x="31" y="23" width="3" height="2"></rect>
                <rect id="Rectangle-path" x="23" y="14" width="2" height="3"></rect>
                <rect id="Rectangle-path" x="23" y="31" width="2" height="3"></rect>
                <rect id="Rectangle-path" transform="translate(17.989600, 18.004000) rotate(45.000000) translate(-17.989600, -18.004000) " x="16.4896144" y="17.0040096" width="2.99997123" height="1.99998082"></rect>
                <rect id="Rectangle-path" transform="translate(30.010500, 29.995100) rotate(45.000000) translate(-30.010500, -29.995100) " x="28.5105144" y="28.9951096" width="2.99997123" height="1.99998082"></rect>
                <rect id="Rectangle-path" transform="translate(29.995600, 17.989000) rotate(45.000000) translate(-29.995600, -17.989000) " x="28.9956096" y="16.4890144" width="1.99998082" height="2.99997123"></rect>
                <rect id="Rectangle-path" transform="translate(18.004500, 30.010000) rotate(45.000000) translate(-18.004500, -30.010000) " x="17.0045096" y="28.5100144" width="1.99998082" height="2.99997123"></rect>
                <path d="M10,54 C7.8,54 6,52.2 6,50 L6,48 L14,48 L14,50 C14,52.2 12.2,54 10,54 L10,54 Z" id="Shape"></path>
                <path d="M56,54 C53.8,54 52,52.2 52,50 L52,48 L60,48 L60,50 C60,52.2 58.2,54 56,54 L56,54 Z" id="Shape"></path>
            </g>
        </g>
    </g>
</svg>